<?xml version="1.0" encoding="iso-8859-1"?>
<!-- Generator: Adobe Illustrator 17.0.2, SVG Export Plug-In . SVG Version: 6.00 Build 0)  -->
<!DOCTYPE svg PUBLIC "-//W3C//DTD SVG 1.1//EN" "http://www.w3.org/Graphics/SVG/1.1/DTD/svg11.dtd">
<svg version="1.1" id="Layer_1" xmlns="http://www.w3.org/2000/svg" xmlns:xlink="http://www.w3.org/1999/xlink" x="0px" y="0px"
	 width="600px" height="95px" viewBox="0 0 600 95" style="enable-background:new 0 0 600 95;" xml:space="preserve">
<g>
	<g>
		<path style="fill-rule:evenodd;clip-rule:evenodd;fill:#5FB0E2;" d="M11.3,91.029C42.095,71.249,77.002,85.478,94.39,95
			C70.306,85.488,34.995,83.257,11.3,91.029z"/>
		<radialGradient id="SVGID_1_" cx="31.8944" cy="24.441" r="112.2217" gradientUnits="userSpaceOnUse">
			<stop  offset="0" style="stop-color:#5FB0E2"/>
			<stop  offset="0.0912" style="stop-color:#45A1D7"/>
			<stop  offset="0.208" style="stop-color:#2C93CD"/>
			<stop  offset="0.3383" style="stop-color:#1888C4"/>
			<stop  offset="0.4876" style="stop-color:#0B80BE"/>
			<stop  offset="0.6724" style="stop-color:#027BBB"/>
			<stop  offset="1" style="stop-color:#007ABA"/>
		</radialGradient>
		<path style="fill-rule:evenodd;clip-rule:evenodd;fill:url(#SVGID_1_);" d="M65.362,0.432c14.797,0,27.533,8.723,33.22,21.245
			H87.005c-5.109-6.303-12.966-10.342-21.779-10.342c-8.666,0-16.409,3.904-21.523,10.029c0.275-0.219,0.554-0.436,0.848-0.645
			c12.098-8.635,28.231,0.883,28.231,0.883s-15.331-4.431-25.698,2.835c-10.364,7.268-8.698,21.816-8.698,21.816
			s-0.068-0.193-0.173-0.543c0.043,0.168,0.088,0.334,0.135,0.501c-2.486-1.831-5.5-3.026-8.78-3.341
			c-0.391-2.11-0.596-4.282-0.596-6.503C28.971,16.521,45.263,0.432,65.362,0.432L65.362,0.432z M18.824,82.634v-3.108
			c9.625-7.105,27.336-16.35,48.63-9.677c32.363,10.141,52.958,23.937,77.966,17.727c25.009-6.208,27.216-19.868,27.216-19.868
			s-4.415,19.293-29.055,23.526c-24.639,4.235-47.337-0.513-76.206-11.275C47.889,72.696,29.029,78.33,18.824,82.634L18.824,82.634z
			 M18.824,76.396c1.79-1.209,3.619-2.351,5.292-3.219c-0.817-0.521-1.583-1.114-2.272-1.793c-1.285-1.263-2.269-2.67-3.019-4.124
			v6.681l0.197,0.194c0.321,0.303,0.659,0.587,1.006,0.85c-0.411-0.195-0.811-0.406-1.202-0.63V76.396L18.824,76.396z M18.824,45.24
			V33.8c2.353-0.804,4.854-1.291,7.455-1.406c-0.134,1.306-0.203,2.633-0.203,3.975c0,2.254,0.196,4.463,0.57,6.613
			C23.803,43.102,21.141,43.909,18.824,45.24z M18.824,33.8v11.44c-5.073,2.916-8.482,8.343-8.482,14.558
			c0,6.213,3.409,11.639,8.482,14.557v2.041c-2.043,1.383-4.038,2.856-5.687,4.121C5.835,75.859,1,67.752,1,58.529
			C1,47.078,8.45,37.348,18.824,33.8L18.824,33.8z M18.824,67.259c-3.244-6.282-2.126-13.412-2.126-13.412
			s-5.493,12.593,2.126,20.093V67.259L18.824,67.259z M18.824,79.527c-5.003,3.694-7.823,6.81-7.823,6.81
			c0,0.134,2.909-1.63,7.823-3.702V79.527z"/>
		<path style="fill-rule:evenodd;clip-rule:evenodd;fill:#5FB0E2;" d="M100.216,74.607c0,0,15.447,7.908,29.973,6.62
			c14.526-1.288,18.94-6.436,18.94-6.436s-5.332,9.838-19.307,10.389C115.845,85.732,100.216,74.975,100.216,74.607z"/>
		<rect x="88.372" y="24.648" style="fill-rule:evenodd;clip-rule:evenodd;fill:#5FB0E2;" width="12.984" height="12.983"/>
		<rect x="139.935" y="60.62" style="fill-rule:evenodd;clip-rule:evenodd;fill:#0088CF;" width="10.042" height="10.042"/>
		<rect x="104.019" y="12.752" style="fill-rule:evenodd;clip-rule:evenodd;fill:#5FB0E2;" width="17.314" height="17.311"/>
		<rect x="154.283" y="42.711" style="fill-rule:evenodd;clip-rule:evenodd;fill:#0088CF;" width="17.315" height="17.311"/>
		<rect x="122.993" y="31.394" style="fill-rule:evenodd;clip-rule:evenodd;fill:#5FB0E2;" width="9.652" height="9.651"/>
		<rect x="129.448" y="50.405" style="fill-rule:evenodd;clip-rule:evenodd;fill:#5FB0E2;" width="9.652" height="9.651"/>
		<rect x="109.129" y="51.367" style="fill-rule:evenodd;clip-rule:evenodd;fill:#0088CF;" width="9.653" height="9.652"/>
		<rect x="142.966" y="31.726" style="fill-rule:evenodd;clip-rule:evenodd;fill:#0088CF;" width="9.652" height="9.652"/>
	</g>
	<g>
		<path style="fill:#0A8CCC;" d="M250.121,51.051c0,4.047-0.675,7.765-2.024,11.149c-1.35,3.387-3.246,6.301-5.689,8.745
			c-2.444,2.443-5.384,4.34-8.821,5.689s-7.243,2.023-11.417,2.023h-21.078V23.443h21.078c4.174,0,7.98,0.681,11.417,2.043
			s6.377,3.259,8.821,5.689c2.444,2.431,4.34,5.34,5.689,8.725C249.446,43.287,250.121,47.003,250.121,51.051z M239.62,51.051
			c0-3.029-0.407-5.747-1.222-8.153c-0.815-2.406-1.973-4.442-3.475-6.109c-1.502-1.667-3.329-2.946-5.479-3.838
			c-2.151-0.891-4.576-1.336-7.274-1.336h-10.73v38.872h10.73c2.698,0,5.123-0.444,7.274-1.336c2.151-0.891,3.977-2.17,5.479-3.838
			c1.502-1.667,2.66-3.704,3.475-6.109C239.212,56.797,239.62,54.08,239.62,51.051z"/>
		<path style="fill:#0A8CCC;" d="M265.28,28.063c0,0.815-0.166,1.579-0.497,2.292c-0.331,0.713-0.771,1.336-1.317,1.871
			c-0.548,0.535-1.19,0.961-1.928,1.279c-0.739,0.319-1.527,0.478-2.368,0.478c-0.815,0-1.584-0.159-2.31-0.478
			c-0.726-0.318-1.355-0.745-1.89-1.279c-0.535-0.534-0.961-1.158-1.279-1.871c-0.318-0.712-0.477-1.476-0.477-2.292
			c0-0.84,0.159-1.628,0.477-2.367c0.318-0.738,0.745-1.375,1.279-1.909s1.165-0.961,1.89-1.279c0.726-0.318,1.495-0.478,2.31-0.478
			c0.84,0,1.629,0.16,2.368,0.478c0.738,0.318,1.38,0.745,1.928,1.279c0.547,0.535,0.986,1.171,1.317,1.909
			C265.114,26.435,265.28,27.223,265.28,28.063z M263.867,39.48v39.178h-9.432V39.48H263.867z"/>
		<path style="fill:#0A8CCC;" d="M284.257,38.793c1.68,0,3.258,0.172,4.735,0.516c1.476,0.344,2.826,0.847,4.047,1.508h11.265v3.513
			c0,0.586-0.153,1.044-0.459,1.375c-0.305,0.331-0.827,0.56-1.565,0.687l-3.513,0.649c0.254,0.662,0.452,1.362,0.592,2.101
			c0.14,0.738,0.21,1.515,0.21,2.329c0,1.935-0.388,3.685-1.165,5.25c-0.777,1.565-1.846,2.896-3.208,3.99
			c-1.362,1.095-2.979,1.941-4.85,2.54c-1.871,0.598-3.901,0.896-6.09,0.896c-1.477,0-2.916-0.139-4.315-0.42
			c-1.222,0.744-1.833,1.578-1.833,2.5c0,0.796,0.363,1.379,1.088,1.751c0.726,0.371,1.68,0.634,2.864,0.788s2.526,0.23,4.028,0.23
			s3.042,0.064,4.621,0.191c1.578,0.128,3.118,0.352,4.621,0.671c1.501,0.319,2.845,0.823,4.028,1.514
			c1.184,0.689,2.138,1.628,2.863,2.815s1.089,2.714,1.089,4.578c0,1.736-0.427,3.422-1.279,5.057
			c-0.854,1.634-2.087,3.09-3.704,4.367c-1.617,1.276-3.596,2.305-5.938,3.084c-2.342,0.779-5.016,1.169-8.019,1.169
			c-2.978,0-5.562-0.287-7.751-0.859c-2.189-0.573-4.003-1.337-5.441-2.291c-1.438-0.955-2.514-2.057-3.227-3.304
			c-0.713-1.247-1.069-2.545-1.069-3.895c0-1.833,0.56-3.373,1.68-4.62s2.673-2.24,4.659-2.979
			c-0.968-0.534-1.744-1.247-2.329-2.139c-0.586-0.891-0.878-2.049-0.878-3.475c0-0.585,0.102-1.189,0.306-1.813
			c0.203-0.624,0.515-1.241,0.936-1.853c0.42-0.61,0.948-1.189,1.584-1.737c0.636-0.547,1.387-1.037,2.253-1.47
			c-1.985-1.069-3.545-2.495-4.678-4.277c-1.133-1.781-1.699-3.869-1.699-6.262c0-1.935,0.388-3.685,1.165-5.251
			c0.776-1.565,1.858-2.902,3.246-4.009c1.387-1.107,3.029-1.953,4.926-2.539C279.948,39.086,282.017,38.793,284.257,38.793z
			 M294.605,80.303c0-0.779-0.229-1.416-0.688-1.909c-0.458-0.494-1.083-0.877-1.871-1.15c-0.79-0.273-1.712-0.475-2.769-0.604
			c-1.057-0.13-2.176-0.195-3.36-0.195c-1.184,0-2.406,0-3.666,0s-2.476-0.14-3.646-0.42c-1.069,0.586-1.929,1.279-2.578,2.081
			s-0.974,1.725-0.974,2.769c0,0.688,0.172,1.33,0.516,1.928c0.343,0.599,0.891,1.114,1.642,1.547
			c0.75,0.433,1.725,0.77,2.921,1.012c1.196,0.242,2.66,0.363,4.391,0.363c1.756,0,3.271-0.137,4.544-0.409
			c1.273-0.273,2.323-0.65,3.15-1.131c0.827-0.481,1.432-1.053,1.814-1.716S294.605,81.082,294.605,80.303z M284.257,58.114
			c1.17,0,2.189-0.158,3.055-0.477c0.865-0.318,1.584-0.758,2.157-1.317s1.005-1.234,1.298-2.024
			c0.292-0.788,0.439-1.654,0.439-2.597c0-1.934-0.58-3.468-1.738-4.601c-1.159-1.133-2.896-1.7-5.212-1.7
			c-2.317,0-4.054,0.567-5.212,1.7c-1.159,1.133-1.737,2.667-1.737,4.601c0,0.917,0.146,1.771,0.439,2.559
			c0.292,0.79,0.726,1.471,1.298,2.043c0.573,0.573,1.298,1.019,2.177,1.337C282.1,57.956,283.112,58.114,284.257,58.114z"/>
		<path style="fill:#0A8CCC;" d="M317.859,28.063c0,0.815-0.166,1.579-0.498,2.292c-0.33,0.713-0.77,1.336-1.316,1.871
			c-0.547,0.535-1.189,0.961-1.928,1.279c-0.74,0.319-1.527,0.478-2.367,0.478c-0.816,0-1.586-0.159-2.311-0.478
			c-0.727-0.318-1.355-0.745-1.891-1.279c-0.535-0.534-0.961-1.158-1.279-1.871c-0.318-0.712-0.477-1.476-0.477-2.292
			c0-0.84,0.158-1.628,0.477-2.367c0.318-0.738,0.744-1.375,1.279-1.909s1.164-0.961,1.891-1.279
			c0.725-0.318,1.494-0.478,2.311-0.478c0.84,0,1.627,0.16,2.367,0.478c0.738,0.318,1.381,0.745,1.928,1.279
			s0.986,1.171,1.316,1.909C317.693,26.435,317.859,27.223,317.859,28.063z M316.445,39.48v39.178h-9.432V39.48H316.445z"/>
		<path style="fill:#0A8CCC;" d="M336.149,79.27c-3.387,0-5.995-0.961-7.828-2.884c-1.833-1.921-2.75-4.575-2.75-7.961v-21.88
			h-3.971c-0.51,0-0.949-0.165-1.317-0.497c-0.369-0.33-0.554-0.827-0.554-1.489v-3.742l6.301-1.031l1.985-10.692
			c0.102-0.509,0.337-0.903,0.706-1.184s0.834-0.42,1.395-0.42h4.887v12.334h10.311v6.721h-10.311v21.23
			c0,1.222,0.306,2.177,0.917,2.864s1.426,1.03,2.443,1.03c0.586,0,1.075-0.069,1.471-0.21c0.395-0.14,0.738-0.286,1.031-0.438
			c0.292-0.153,0.554-0.299,0.782-0.439c0.229-0.14,0.458-0.21,0.688-0.21c0.28,0,0.509,0.07,0.688,0.21
			c0.178,0.141,0.368,0.351,0.572,0.63l2.826,4.582c-1.375,1.146-2.953,2.012-4.735,2.597
			C339.903,78.977,338.059,79.27,336.149,79.27z"/>
		<path style="fill:#0A8CCC;" d="M379.718,78.658h-4.238c-0.892,0-1.592-0.134-2.101-0.401c-0.51-0.267-0.892-0.808-1.146-1.622
			l-0.84-2.788c-0.993,0.892-1.967,1.675-2.921,2.349c-0.955,0.675-1.942,1.241-2.96,1.699c-1.019,0.458-2.1,0.802-3.245,1.031
			c-1.146,0.229-2.419,0.344-3.819,0.344c-1.654,0-3.182-0.224-4.582-0.67c-1.4-0.447-2.603-1.118-3.608-2.012
			s-1.788-2.005-2.349-3.333c-0.56-1.328-0.84-2.874-0.84-4.637c0-1.481,0.388-2.943,1.165-4.387
			c0.776-1.442,2.067-2.745,3.876-3.907c1.807-1.162,4.213-2.127,7.217-2.893c3.003-0.767,6.732-1.149,11.188-1.149v-2.309
			c0-2.643-0.554-4.599-1.66-5.868c-1.107-1.27-2.718-1.904-4.831-1.904c-1.527,0-2.801,0.179-3.818,0.534
			c-1.019,0.357-1.903,0.758-2.653,1.203c-0.752,0.445-1.445,0.847-2.081,1.203c-0.637,0.356-1.337,0.534-2.101,0.534
			c-0.637,0-1.184-0.165-1.642-0.496c-0.459-0.331-0.828-0.738-1.107-1.222l-1.719-3.017c4.506-4.124,9.94-6.186,16.305-6.186
			c2.291,0,4.334,0.376,6.129,1.126c1.795,0.751,3.315,1.795,4.563,3.131c1.247,1.336,2.195,2.935,2.845,4.792
			c0.649,1.858,0.974,3.895,0.974,6.109V78.658z M361.389,72.777c0.968,0,1.858-0.087,2.673-0.263s1.585-0.438,2.311-0.789
			c0.726-0.352,1.426-0.783,2.101-1.297c0.674-0.514,1.355-1.122,2.042-1.823v-6.558c-2.749,0-5.047,0.173-6.892,0.519
			c-1.847,0.347-3.329,0.789-4.449,1.327c-1.12,0.539-1.915,1.167-2.386,1.885c-0.472,0.718-0.707,1.5-0.707,2.346
			c0,1.667,0.49,2.859,1.471,3.577C358.531,72.419,359.811,72.777,361.389,72.777z"/>
		<path style="fill:#0A8CCC;" d="M395.221,21.916v56.743h-9.432V21.916H395.221z"/>
		<path style="fill:#0A8CCC;" d="M455.553,51.051c0,4.047-0.675,7.796-2.023,11.245c-1.35,3.45-3.246,6.435-5.689,8.954
			c-2.444,2.521-5.384,4.487-8.82,5.899c-3.438,1.413-7.243,2.12-11.418,2.12s-7.987-0.707-11.437-2.12
			c-3.449-1.412-6.402-3.379-8.858-5.899c-2.457-2.52-4.359-5.504-5.709-8.954c-1.35-3.449-2.023-7.198-2.023-11.245
			c0-4.048,0.674-7.796,2.023-11.246c1.35-3.449,3.252-6.434,5.709-8.955c2.456-2.52,5.409-4.487,8.858-5.899
			c3.449-1.413,7.262-2.119,11.437-2.119s7.98,0.713,11.418,2.138c3.437,1.426,6.376,3.393,8.82,5.899
			c2.443,2.508,4.34,5.486,5.689,8.936C454.878,43.255,455.553,47.003,455.553,51.051z M445.014,51.051
			c0-3.029-0.4-5.747-1.202-8.153s-1.954-4.448-3.456-6.128s-3.328-2.965-5.479-3.857c-2.151-0.891-4.576-1.336-7.274-1.336
			s-5.13,0.446-7.293,1.336c-2.164,0.892-4.004,2.177-5.518,3.857c-1.516,1.68-2.68,3.723-3.494,6.128
			c-0.815,2.406-1.222,5.124-1.222,8.153s0.406,5.746,1.222,8.152c0.814,2.405,1.979,4.442,3.494,6.109
			c1.514,1.668,3.354,2.947,5.518,3.838c2.163,0.892,4.595,1.336,7.293,1.336s5.123-0.444,7.274-1.336
			c2.151-0.891,3.978-2.17,5.479-3.838c1.502-1.667,2.654-3.704,3.456-6.109C444.613,56.797,445.014,54.08,445.014,51.051z"/>
		<path style="fill:#0A8CCC;" d="M486.826,47.767c-0.28,0.356-0.554,0.637-0.82,0.84c-0.268,0.204-0.656,0.306-1.165,0.306
			c-0.483,0-0.954-0.146-1.413-0.439c-0.458-0.292-1.006-0.623-1.642-0.992c-0.637-0.369-1.394-0.7-2.271-0.993
			c-0.879-0.292-1.967-0.439-3.266-0.439c-1.654,0-3.105,0.3-4.353,0.897c-1.248,0.599-2.285,1.458-3.112,2.578
			s-1.445,2.476-1.852,4.066c-0.408,1.591-0.611,3.393-0.611,5.403c0,2.088,0.223,3.946,0.668,5.575s1.089,2.997,1.929,4.104
			s1.857,1.947,3.055,2.521c1.196,0.572,2.545,0.858,4.048,0.858c1.502,0,2.717-0.184,3.646-0.554
			c0.929-0.368,1.712-0.775,2.349-1.222c0.636-0.445,1.189-0.853,1.661-1.222c0.471-0.369,0.998-0.554,1.584-0.554
			c0.764,0,1.337,0.293,1.719,0.878l2.711,3.437c-1.044,1.223-2.177,2.247-3.398,3.074c-1.222,0.828-2.488,1.489-3.8,1.985
			c-1.311,0.497-2.667,0.847-4.066,1.051c-1.4,0.203-2.787,0.306-4.162,0.306c-2.419,0-4.696-0.453-6.835-1.356
			s-4.004-2.221-5.594-3.952c-1.592-1.73-2.852-3.85-3.78-6.357c-0.93-2.507-1.395-5.365-1.395-8.572c0-2.877,0.414-5.543,1.241-8
			c0.827-2.456,2.043-4.582,3.646-6.377c1.604-1.794,3.59-3.201,5.957-4.219c2.367-1.018,5.091-1.527,8.172-1.527
			c2.927,0,5.492,0.471,7.694,1.413c2.201,0.942,4.181,2.291,5.938,4.048L486.826,47.767z"/>
		<path style="fill:#0A8CCC;" d="M508.095,38.87c2.47,0,4.741,0.395,6.816,1.184c2.074,0.79,3.862,1.941,5.365,3.456
			c1.501,1.515,2.673,3.374,3.513,5.575c0.84,2.202,1.26,4.716,1.26,7.542c0,0.713-0.032,1.305-0.095,1.775
			c-0.064,0.471-0.179,0.84-0.344,1.107c-0.166,0.267-0.389,0.458-0.669,0.572s-0.636,0.172-1.068,0.172h-24.21
			c0.28,4.022,1.362,6.976,3.246,8.859s4.378,2.825,7.484,2.825c1.527,0,2.845-0.178,3.952-0.534s2.074-0.751,2.901-1.184
			s1.553-0.827,2.177-1.185c0.624-0.355,1.229-0.534,1.814-0.534c0.382,0,0.712,0.076,0.992,0.229
			c0.28,0.152,0.521,0.369,0.726,0.648l2.749,3.437c-1.044,1.223-2.214,2.247-3.513,3.074c-1.298,0.828-2.653,1.489-4.066,1.985
			c-1.413,0.497-2.852,0.847-4.315,1.051c-1.464,0.203-2.883,0.306-4.257,0.306c-2.725,0-5.258-0.453-7.6-1.356
			s-4.378-2.239-6.109-4.009s-3.093-3.958-4.086-6.568c-0.992-2.608-1.489-5.632-1.489-9.068c0-2.673,0.433-5.187,1.299-7.542
			c0.865-2.354,2.106-4.403,3.723-6.147c1.616-1.744,3.59-3.125,5.919-4.143C502.539,39.379,505.167,38.87,508.095,38.87z
			 M508.286,45.629c-2.749,0-4.901,0.776-6.453,2.329c-1.554,1.553-2.546,3.755-2.979,6.605h17.718c0-1.222-0.166-2.373-0.496-3.456
			c-0.332-1.081-0.841-2.029-1.528-2.845c-0.687-0.814-1.553-1.457-2.596-1.928C510.907,45.864,509.686,45.629,508.286,45.629z"/>
		<path style="fill:#0A8CCC;" d="M559.605,78.658h-4.238c-0.892,0-1.592-0.134-2.101-0.401c-0.51-0.267-0.892-0.808-1.146-1.622
			l-0.84-2.788c-0.993,0.892-1.967,1.675-2.921,2.349c-0.955,0.675-1.942,1.241-2.96,1.699c-1.019,0.458-2.1,0.802-3.245,1.031
			c-1.146,0.229-2.419,0.344-3.819,0.344c-1.654,0-3.182-0.224-4.582-0.67c-1.4-0.447-2.603-1.118-3.608-2.012
			s-1.788-2.005-2.349-3.333c-0.56-1.328-0.84-2.874-0.84-4.637c0-1.481,0.388-2.943,1.165-4.387
			c0.776-1.442,2.067-2.745,3.876-3.907c1.807-1.162,4.213-2.127,7.217-2.893c3.003-0.767,6.732-1.149,11.188-1.149v-2.309
			c0-2.643-0.554-4.599-1.66-5.868c-1.107-1.27-2.718-1.904-4.831-1.904c-1.527,0-2.801,0.179-3.818,0.534
			c-1.019,0.357-1.903,0.758-2.653,1.203c-0.752,0.445-1.445,0.847-2.081,1.203c-0.637,0.356-1.337,0.534-2.101,0.534
			c-0.637,0-1.184-0.165-1.642-0.496c-0.459-0.331-0.828-0.738-1.107-1.222l-1.719-3.017c4.506-4.124,9.94-6.186,16.305-6.186
			c2.291,0,4.334,0.376,6.129,1.126c1.795,0.751,3.315,1.795,4.563,3.131c1.247,1.336,2.195,2.935,2.845,4.792
			c0.649,1.858,0.974,3.895,0.974,6.109V78.658z M541.276,72.777c0.968,0,1.858-0.087,2.673-0.263s1.585-0.438,2.311-0.789
			c0.726-0.352,1.426-0.783,2.101-1.297c0.674-0.514,1.355-1.122,2.042-1.823v-6.558c-2.749,0-5.047,0.173-6.892,0.519
			c-1.847,0.347-3.329,0.789-4.449,1.327c-1.12,0.539-1.915,1.167-2.386,1.885c-0.472,0.718-0.707,1.5-0.707,2.346
			c0,1.667,0.49,2.859,1.471,3.577C538.419,72.419,539.698,72.777,541.276,72.777z"/>
		<path style="fill:#0A8CCC;" d="M565.065,78.658V39.48h5.767c1.222,0,2.023,0.573,2.405,1.718l0.649,3.093
			c0.788-0.814,1.623-1.553,2.501-2.215c0.878-0.662,1.808-1.234,2.787-1.718c0.98-0.483,2.03-0.853,3.15-1.107
			c1.12-0.254,2.342-0.382,3.666-0.382c2.139,0,4.034,0.363,5.689,1.088c1.654,0.725,3.036,1.744,4.144,3.055
			c1.106,1.312,1.947,2.877,2.52,4.696c0.573,1.82,0.859,3.825,0.859,6.015v24.935h-9.432V53.724c0-2.393-0.554-4.245-1.661-5.556
			c-1.107-1.312-2.769-1.967-4.983-1.967c-1.629,0-3.156,0.369-4.582,1.107s-2.774,1.744-4.048,3.017v28.333H565.065z"/>
	</g>
</g>
</svg>
